# Blender v2.77 (sub 0) OBJ File: 'launcher.blend'
# www.blender.org
mtllib launcher_tube.mtl
o Cylinder
v -2.379853 0.146110 -1.328187
v 3.791840 -0.064320 -1.514968
v -2.377700 -0.128366 -1.355054
v -2.374147 -0.402796 -1.327873
v 3.800210 -0.602589 -1.407604
v -2.369330 -0.666635 -1.247689
v -2.363434 -0.909742 -1.117584
v 3.806106 -0.845697 -1.277499
v -2.356685 -1.122777 -0.942558
v 3.812854 -1.058731 -1.102472
v -2.349345 -1.297551 -0.729336
v 3.820195 -1.233505 -0.889251
v -2.341693 -1.427348 -0.486113
v 3.827847 -1.363303 -0.646028
v -2.334024 -1.507181 -0.222236
v 3.835515 -1.443136 -0.382151
v -2.326634 -1.533981 0.052155
v 3.842906 -1.469936 -0.107759
v -2.319805 -1.506719 0.326515
v 3.849734 -1.442673 0.166600
v -2.313801 -1.426441 0.590301
v 3.855738 -1.362396 0.430387
v -2.308853 -1.296234 0.833375
v 3.860687 -1.232189 0.673460
v -2.305149 -1.121102 1.046396
v 3.864391 -1.057056 0.886482
v -2.302833 -0.907773 1.221179
v 3.866706 -0.843727 1.061264
v -2.301994 -0.664446 1.351005
v 3.866876 -0.336427 1.270972
v -2.302664 -0.400472 1.430886
v 3.864723 -0.061951 1.297838
v -2.304817 -0.125997 1.457753
v 3.861170 0.212479 1.270657
v -2.308369 0.148434 1.430571
v 3.856353 0.476318 1.190473
v -2.313188 0.412272 1.350388
v -2.319083 0.655380 1.220282
v 3.850457 0.719426 1.060368
v -2.325831 0.868414 1.045256
v 3.843709 0.932460 0.885341
v -2.333172 1.043188 0.832034
v 3.828714 1.237031 0.428896
v -2.340825 1.172985 0.588811
v -2.348492 1.252818 0.324933
v 3.813656 1.343663 -0.109372
v -2.355883 1.279618 0.050542
v 3.806828 1.316401 -0.383733
v -2.362711 1.252355 -0.223818
v -2.368715 1.172077 -0.487604
v 3.800823 1.236123 -0.647519
v -2.373664 1.041870 -0.730678
v 3.795875 1.105916 -0.890592
v -2.377368 0.866737 -0.943699
v 3.792172 0.930782 -1.103614
v -2.379684 0.653408 -1.118481
v 3.789856 0.717453 -1.278395
v -2.380523 0.410081 -1.248307
v 3.789017 0.474126 -1.408221
v 3.789686 0.210155 -1.488102
v 3.795393 -0.338751 -1.487787
v 3.867546 -0.600400 1.191090
v 3.836367 1.107234 0.672119
v 3.821046 1.316863 0.165019
vt 0.6132 0.0000
vt 0.5712 0.5000
vt 0.5712 0.0000
vt 0.5300 0.0000
vt 0.4912 0.5000
vt 0.4912 0.0000
vt 0.4562 0.0000
vt 0.4562 0.5000
vt 0.4265 0.0000
vt 1.0000 1.0000
vt 0.9651 0.5000
vt 1.0000 0.5000
vt 0.9651 1.0000
vt 0.9263 0.5000
vt 0.9263 1.0000
vt 0.8851 0.5000
vt 0.8851 1.0000
vt 0.8431 0.5000
vt 0.8431 1.0000
vt 0.8019 0.5000
vt 0.8019 1.0000
vt 0.7630 0.5000
vt 0.7630 1.0000
vt 0.7281 0.5000
vt 0.4265 0.5000
vt 0.4614 1.0000
vt 0.4265 1.0000
vt 0.4614 0.5000
vt 0.5003 1.0000
vt 0.5003 0.5000
vt 0.5415 1.0000
vt 0.5835 0.5000
vt 0.5835 1.0000
vt 0.6247 0.5000
vt 0.6247 1.0000
vt 0.6635 0.5000
vt 0.6635 1.0000
vt 0.6984 0.5000
vt 0.6984 1.0000
vt 0.7281 1.0000
vt 0.0000 0.4976
vt 0.0349 0.9976
vt 0.0000 0.9976
vt 0.0349 0.4976
vt 0.0737 0.9976
vt 0.1149 0.4976
vt 0.1149 0.9976
vt 0.1569 0.9976
vt 0.1981 0.4976
vt 0.1981 0.9976
vt 0.2370 0.4976
vt 0.2370 0.9976
vt 0.2719 0.9976
vt 0.2719 0.4976
vt 0.3016 0.9976
vt 0.7578 0.5000
vt 0.7281 0.0000
vt 0.7578 0.0000
vt 0.7281 0.5000
vt 0.6932 0.0000
vt 0.6932 0.5000
vt 0.6544 0.0000
vt 0.6544 0.5000
vt 0.4183 0.1762
vt 0.1122 0.4693
vt 0.0082 0.3214
vt 0.6132 0.5000
vt 0.5300 0.5000
vt 0.4265 0.5000
vt 0.7281 1.0000
vt 0.5415 0.5000
vt 0.7281 0.5000
vt 0.0737 0.4976
vt 0.1569 0.4976
vt 0.3016 0.4976
vt 0.0000 0.2733
vt 0.0243 0.1309
vt 0.0000 0.2243
vt 0.0082 0.1762
vt 0.0476 0.0902
vt 0.0773 0.0555
vt 0.1122 0.0283
vt 0.1511 0.0096
vt 0.1923 0.0000
vt 0.2343 0.0000
vt 0.2755 0.0096
vt 0.3143 0.0283
vt 0.3492 0.0555
vt 0.3789 0.0902
vt 0.4022 0.1309
vt 0.4265 0.2243
vt 0.4265 0.2733
vt 0.4183 0.3214
vt 0.4022 0.3666
vt 0.3789 0.4074
vt 0.2755 0.4880
vt 0.3492 0.4420
vt 0.3143 0.4693
vt 0.2343 0.4976
vt 0.1923 0.4976
vt 0.1511 0.4880
vt 0.0773 0.4420
vt 0.0476 0.4074
vt 0.0243 0.3666
vn -0.0268 0.0972 -0.9949
vn -0.0248 -0.0989 -0.9948
vn -0.0248 -0.0988 -0.9948
vn -0.0218 -0.2911 -0.9565
vn -0.0179 -0.4721 -0.8814
vn -0.0134 -0.6350 -0.7724
vn -0.0084 -0.7735 -0.6337
vn -0.0030 -0.8823 -0.4707
vn 0.0024 -0.9571 -0.2896
vn 0.0078 -0.9952 -0.0974
vn 0.0129 -0.9950 0.0986
vn 0.0175 -0.9566 0.2907
vn 0.0214 -0.8815 0.4717
vn 0.0245 -0.7724 0.6346
vn 0.0266 -0.6337 0.7731
vn 0.0277 -0.4706 0.8819
vn 0.0278 -0.2895 0.9568
vn 0.0268 -0.0972 0.9949
vn 0.0248 0.0989 0.9948
vn 0.0218 0.2911 0.9565
vn 0.0179 0.4721 0.8814
vn 0.0134 0.6350 0.7724
vn 0.0084 0.7735 0.6337
vn 0.0030 0.8823 0.4707
vn -0.0024 0.9571 0.2896
vn -0.0078 0.9952 0.0974
vn -0.0129 0.9950 -0.0986
vn -0.0175 0.9566 -0.2907
vn -0.0214 0.8815 -0.4717
vn -0.0245 0.7724 -0.6346
vn -0.0266 0.6337 -0.7731
vn -0.0277 0.4706 -0.8819
vn -0.0278 0.2895 -0.9568
vn -0.9996 -0.0104 0.0259
vn 0.0248 0.0988 0.9948
usemtl None
s 1
f 1/1/1 2/2/1 3/3/1
f 2/2/2 4/4/3 3/3/3
f 4/4/4 5/5/4 6/6/4
f 5/5/5 7/7/5 6/6/5
f 8/8/6 9/9/6 7/7/6
f 10/10/7 11/11/7 9/12/7
f 12/13/8 13/14/8 11/11/8
f 14/15/9 15/16/9 13/14/9
f 16/17/10 17/18/10 15/16/10
f 18/19/11 19/20/11 17/18/11
f 20/21/12 21/22/12 19/20/12
f 22/23/13 23/24/13 21/22/13
f 24/25/14 25/26/14 23/27/14
f 26/28/15 27/29/15 25/26/15
f 28/30/16 29/31/16 27/29/16
f 29/31/17 30/32/17 31/33/17
f 31/33/18 32/34/18 33/35/18
f 33/35/19 34/36/19 35/37/19
f 35/37/20 36/38/20 37/39/20
f 36/38/21 38/40/21 37/39/21
f 39/41/22 40/42/22 38/43/22
f 41/44/23 42/45/23 40/42/23
f 42/45/24 43/46/24 44/47/24
f 43/46/25 45/48/25 44/47/25
f 45/48/26 46/49/26 47/50/26
f 47/50/27 48/51/27 49/52/27
f 48/51/28 50/53/28 49/52/28
f 51/54/29 52/55/29 50/53/29
f 53/56/30 54/57/30 52/58/30
f 55/59/31 56/60/31 54/57/31
f 57/61/32 58/62/32 56/60/32
f 59/63/33 1/1/33 58/62/33
f 29/64/34 50/65/34 58/66/34
f 1/1/1 60/67/1 2/2/1
f 2/2/2 61/68/2 4/4/3
f 4/4/4 61/68/4 5/5/4
f 5/5/5 8/8/5 7/7/5
f 8/8/6 10/69/6 9/9/6
f 10/10/7 12/13/7 11/11/7
f 12/13/8 14/15/8 13/14/8
f 14/15/9 16/17/9 15/16/9
f 16/17/10 18/19/10 17/18/10
f 18/19/11 20/21/11 19/20/11
f 20/21/12 22/23/12 21/22/12
f 22/23/13 24/70/13 23/24/13
f 24/25/14 26/28/14 25/26/14
f 26/28/15 28/30/15 27/29/15
f 28/30/16 62/71/16 29/31/16
f 29/31/17 62/71/17 30/32/17
f 31/33/18 30/32/18 32/34/18
f 33/35/35 32/34/35 34/36/35
f 35/37/20 34/36/20 36/38/20
f 36/38/21 39/72/21 38/40/21
f 39/41/22 41/44/22 40/42/22
f 41/44/23 63/73/23 42/45/23
f 42/45/24 63/73/24 43/46/24
f 43/46/25 64/74/25 45/48/25
f 45/48/26 64/74/26 46/49/26
f 47/50/27 46/49/27 48/51/27
f 48/51/28 51/54/28 50/53/28
f 51/54/29 53/75/29 52/55/29
f 53/56/30 55/59/30 54/57/30
f 55/59/31 57/61/31 56/60/31
f 57/61/32 59/63/32 58/62/32
f 59/63/33 60/67/33 1/1/33
f 58/66/34 1/76/34 6/77/34
f 3/78/34 4/79/34 6/77/34
f 6/77/34 7/80/34 58/66/34
f 9/81/34 11/82/34 13/83/34
f 13/83/34 15/84/34 17/85/34
f 17/85/34 19/86/34 13/83/34
f 21/87/34 23/88/34 25/89/34
f 25/89/34 27/90/34 29/64/34
f 29/64/34 31/91/34 33/92/34
f 33/92/34 35/93/34 29/64/34
f 37/94/34 38/95/34 44/96/34
f 40/97/34 42/98/34 44/96/34
f 44/96/34 45/99/34 50/65/34
f 47/100/34 49/101/34 50/65/34
f 50/65/34 52/102/34 54/103/34
f 54/103/34 56/104/34 58/66/34
f 1/76/34 3/78/34 6/77/34
f 7/80/34 9/81/34 13/83/34
f 13/83/34 19/86/34 21/87/34
f 21/87/34 25/89/34 29/64/34
f 29/64/34 35/93/34 44/96/34
f 38/95/34 40/97/34 44/96/34
f 45/99/34 47/100/34 50/65/34
f 50/65/34 54/103/34 58/66/34
f 58/66/34 7/80/34 29/64/34
f 13/83/34 21/87/34 29/64/34
f 35/93/34 37/94/34 44/96/34
f 44/96/34 50/65/34 29/64/34
f 7/80/34 13/83/34 29/64/34
