# Blender v2.77 (sub 0) OBJ File: 'spikes.blend'
# www.blender.org
mtllib spike.mtl
o Cone.001_Cone.003
v -0.007386 0.062940 -1.307625
v 0.216423 0.062940 -1.279724
v 0.431631 0.062940 -1.197091
v 0.629967 0.062940 -1.062904
v 0.803810 0.062940 -0.882318
v 0.946480 0.062940 -0.662273
v 1.052493 0.062940 -0.411225
v 1.117776 0.062940 -0.138823
v 1.139819 0.062940 0.144466
v -0.007386 1.823240 0.144466
v 1.117776 0.062940 0.427755
v 1.052493 0.062940 0.700157
v 0.946480 0.062940 0.951204
v 0.803810 0.062940 1.171249
v 0.629967 0.062940 1.351836
v 0.431630 0.062940 1.486023
v 0.216423 0.062940 1.568655
v -0.007386 0.062940 1.596557
v -0.231195 0.062940 1.568655
v -0.446402 0.062940 1.486023
v -0.644739 0.062940 1.351835
v -0.818582 0.062940 1.171249
v -0.961252 0.062940 0.951204
v -1.067265 0.062940 0.700156
v -1.132547 0.062940 0.427754
v -1.154590 0.062940 0.144465
v -1.132547 0.062940 -0.138824
v -1.067264 0.062940 -0.411227
v -0.961250 0.062940 -0.662274
v -0.818581 0.062940 -0.882319
v -0.644737 0.062940 -1.062905
v -0.446400 0.062940 -1.197092
v -0.231192 0.062940 -1.279724
vt 0.3401 0.5178
vt 0.6803 0.0000
vt 0.3581 0.5335
vt 0.3823 0.5494
vt 0.4117 0.5648
vt 0.4453 0.5790
vt 0.4817 0.5916
vt 0.5195 0.6020
vt 0.5572 0.6100
vt 0.5935 0.6150
vt 0.6270 0.6171
vt 0.6563 0.6160
vt 0.6803 0.6119
vt 0.3401 0.0052
vt 0.3401 0.6171
vt 0.3161 0.0011
vt 0.2869 0.0000
vt 0.2534 0.0020
vt 0.2171 0.0071
vt 0.1793 0.0150
vt 0.1415 0.0255
vt 0.1052 0.0381
vt 0.0716 0.0523
vt 0.0422 0.0677
vt 0.0180 0.0836
vt 0.0000 0.0993
vt 1.0000 0.0021
vt 1.0000 0.6186
vt 0.9708 0.0000
vt 0.9373 0.0008
vt 0.9008 0.0046
vt 0.8628 0.0112
vt 0.8246 0.0203
vt 0.7877 0.0316
vt 0.7537 0.0446
vt 0.7236 0.0589
vt 0.6989 0.0739
vt 0.6803 0.0890
vt 0.2580 0.9926
vt 0.2944 0.6389
vt 0.3271 0.6598
vt 0.0000 0.8274
vt 0.0000 0.7897
vt 0.0077 0.7527
vt 0.0227 0.7179
vt 0.0446 0.6865
vt 0.0724 0.6598
vt 0.0446 0.9306
vt 0.1051 0.6389
vt 0.1415 0.6244
vt 0.0724 0.9573
vt 0.1801 0.6171
vt 0.2194 0.6171
vt 0.1801 1.0000
vt 0.2580 0.6244
vt 0.2194 1.0000
vt 0.3549 0.6865
vt 0.3271 0.9573
vt 0.3767 0.7179
vt 0.3918 0.7527
vt 0.3549 0.9306
vt 0.3995 0.7897
vt 0.3995 0.8274
vt 0.3918 0.8644
vt 0.3767 0.8992
vt 0.2944 0.9782
vt 0.1415 0.9926
vt 0.1051 0.9782
vt 0.0227 0.8992
vt 0.0077 0.8644
vn 0.0957 0.6334 -0.7679
vn 0.2798 0.6251 -0.7287
vn 0.4438 0.6106 -0.6559
vn 0.5801 0.5930 -0.5584
vn 0.6861 0.5757 -0.4448
vn 0.7627 0.5609 -0.3221
vn 0.8120 0.5503 -0.1946
vn 0.8360 0.5448 -0.0651
vn 0.8360 0.5448 0.0651
vn 0.8120 0.5503 0.1946
vn 0.7627 0.5609 0.3221
vn 0.6861 0.5757 0.4448
vn 0.5801 0.5930 0.5584
vn 0.4438 0.6106 0.6559
vn 0.2798 0.6251 0.7287
vn 0.0957 0.6334 0.7679
vn -0.0957 0.6334 0.7679
vn -0.2798 0.6251 0.7287
vn -0.4438 0.6106 0.6559
vn -0.5801 0.5930 0.5584
vn -0.6861 0.5757 0.4448
vn -0.7627 0.5609 0.3221
vn -0.8120 0.5503 0.1946
vn -0.8360 0.5448 0.0651
vn -0.8360 0.5448 -0.0651
vn -0.8120 0.5503 -0.1946
vn -0.7627 0.5609 -0.3221
vn -0.6861 0.5757 -0.4448
vn -0.5801 0.5930 -0.5584
vn -0.4438 0.6106 -0.6559
vn -0.2798 0.6251 -0.7287
vn -0.0957 0.6334 -0.7679
vn 0.0000 -1.0000 0.0000
usemtl None
s off
f 1/1/1 10/2/1 2/3/1
f 2/3/2 10/2/2 3/4/2
f 3/4/3 10/2/3 4/5/3
f 4/5/4 10/2/4 5/6/4
f 5/6/5 10/2/5 6/7/5
f 6/7/6 10/2/6 7/8/6
f 7/8/7 10/2/7 8/9/7
f 8/9/8 10/2/8 9/10/8
f 9/10/9 10/2/9 11/11/9
f 11/11/10 10/2/10 12/12/10
f 12/12/11 10/2/11 13/13/11
f 13/14/12 10/15/12 14/16/12
f 14/16/13 10/15/13 15/17/13
f 15/17/14 10/15/14 16/18/14
f 16/18/15 10/15/15 17/19/15
f 17/19/16 10/15/16 18/20/16
f 18/20/17 10/15/17 19/21/17
f 19/21/18 10/15/18 20/22/18
f 20/22/19 10/15/19 21/23/19
f 21/23/20 10/15/20 22/24/20
f 22/24/21 10/15/21 23/25/21
f 23/25/22 10/15/22 24/26/22
f 24/27/23 10/28/23 25/29/23
f 25/29/24 10/28/24 26/30/24
f 26/30/25 10/28/25 27/31/25
f 27/31/26 10/28/26 28/32/26
f 28/32/27 10/28/27 29/33/27
f 29/33/28 10/28/28 30/34/28
f 30/34/29 10/28/29 31/35/29
f 31/35/30 10/28/30 32/36/30
f 32/36/31 10/28/31 33/37/31
f 33/37/32 10/28/32 1/38/32
f 24/39/33 12/40/33 13/41/33
f 33/42/33 1/43/33 2/44/33
f 2/44/33 3/45/33 33/42/33
f 4/46/33 5/47/33 30/48/33
f 6/49/33 7/50/33 29/51/33
f 8/52/33 9/53/33 26/54/33
f 11/55/33 12/40/33 25/56/33
f 13/41/33 14/57/33 22/58/33
f 15/59/33 16/60/33 21/61/33
f 17/62/33 18/63/33 19/64/33
f 19/64/33 20/65/33 17/62/33
f 21/61/33 22/58/33 14/57/33
f 23/66/33 24/39/33 13/41/33
f 25/56/33 26/54/33 9/53/33
f 27/67/33 28/68/33 8/52/33
f 29/51/33 30/48/33 5/47/33
f 31/69/33 32/70/33 4/46/33
f 33/42/33 3/45/33 32/70/33
f 5/47/33 6/49/33 29/51/33
f 9/53/33 11/55/33 25/56/33
f 14/57/33 15/59/33 21/61/33
f 17/62/33 20/65/33 16/60/33
f 22/58/33 23/66/33 13/41/33
f 26/54/33 27/67/33 8/52/33
f 30/48/33 31/69/33 4/46/33
f 3/45/33 4/46/33 32/70/33
f 12/40/33 24/39/33 25/56/33
f 20/65/33 21/61/33 16/60/33
f 28/68/33 7/50/33 8/52/33
f 7/50/33 28/68/33 29/51/33
