# Blender v2.77 (sub 0) OBJ File: ''
# www.blender.org
mtllib uvCube.mtl
o Cube
v 1.000000 -1.000000 -1.000000
v 1.000000 -1.000000 1.000000
v -1.000000 -1.000000 1.000000
v -1.000000 -1.000000 -1.000000
v 1.000000 1.000000 -0.999999
v 0.999999 1.000000 1.000001
v -1.000000 1.000000 1.000000
v -1.000000 1.000000 -1.000000
vt 0.2500 0.2500
vt 0.5000 0.5000
vt 0.2500 0.5000
vt 0.7500 0.5000
vt 0.9999 0.2500
vt 0.9999 0.5000
vt 0.0001 0.5000
vt 0.0001 0.2500
vt 0.2500 0.0001
vt 0.5000 0.2500
vt 0.0001 0.7500
vt 0.7500 0.2500
vt 0.0001 0.0001
vt 0.2500 0.7500
vn 0.5773 -0.5773 0.5773
vn -0.5773 -0.5773 -0.5773
vn 0.5773 -0.5773 -0.5773
vn -0.5773 0.5773 -0.5773
vn 0.5773 0.5773 0.5773
vn 0.5773 0.5773 -0.5773
vn -0.5773 -0.5773 0.5773
vn -0.5773 0.5773 0.5773
usemtl Material
s 1
f 2/1/1 4/2/2 1/3/3
f 8/4/4 6/5/5 5/6/6
f 5/7/6 2/1/1 1/3/3
f 6/8/5 3/9/7 2/1/1
f 3/10/7 8/4/4 4/2/2
f 1/3/3 8/11/4 5/7/6
f 2/1/1 3/10/7 4/2/2
f 8/4/4 7/12/8 6/5/5
f 5/7/6 6/8/5 2/1/1
f 6/8/5 7/13/8 3/9/7
f 3/10/7 7/12/8 8/4/4
f 1/3/3 4/14/2 8/11/4
