# Blender v2.77 (sub 0) OBJ File: ''
# www.blender.org
mtllib uv_dispenser.mtl
o Cylinder
v 0.000000 -0.659704 -0.659705
v 0.128702 -0.659704 -0.647029
v 0.000000 0.659704 -0.659705
v 0.252458 -0.659704 -0.609488
v 0.128702 0.659704 -0.647029
v 0.366512 -0.659704 -0.548524
v 0.252458 0.659704 -0.609488
v 0.466481 -0.659704 -0.466482
v 0.366512 0.659704 -0.548524
v 0.548524 -0.659704 -0.366512
v 0.466481 0.659704 -0.466482
v 0.609487 -0.659704 -0.252458
v 0.548524 0.659704 -0.366512
v 0.647028 -0.659704 -0.128702
v 0.609487 0.659704 -0.252458
v 0.659704 -0.659704 -0.000000
v 0.647028 0.659704 -0.128702
v 0.647028 -0.659704 0.128702
v 0.659704 0.659704 0.000000
v 0.609488 -0.659704 0.252458
v 0.647028 0.659704 0.128702
v 0.548524 -0.659704 0.366512
v 0.609488 0.659704 0.252458
v 0.466481 -0.659704 0.466481
v 0.548524 0.659704 0.366512
v 0.366512 -0.659704 0.548524
v 0.466481 0.659704 0.466481
v 0.252458 -0.659704 0.609487
v 0.366512 0.659704 0.548524
v 0.128702 -0.659704 0.647028
v 0.252458 0.659704 0.609487
v 0.000000 -0.659704 0.659704
v 0.128702 0.659704 0.647028
v -0.128702 -0.659704 0.647028
v -0.128702 0.659704 0.647028
v -0.252458 -0.659704 0.609487
v -0.252458 0.659704 0.609487
v -0.366513 -0.659704 0.548524
v -0.366513 0.659704 0.548524
v -0.466482 -0.659704 0.466481
v -0.466482 0.659704 0.466481
v -0.548524 -0.659704 0.366512
v -0.548524 0.659704 0.366512
v -0.609488 -0.659704 0.252457
v -0.609488 0.659704 0.252457
v -0.647029 -0.659704 0.128701
v -0.647029 0.659704 0.128701
v -0.659704 -0.659704 -0.000001
v -0.659704 0.659704 -0.000001
v -0.647028 -0.659704 -0.128703
v -0.647028 0.659704 -0.128703
v -0.609487 -0.659704 -0.252459
v -0.609487 0.659704 -0.252459
v -0.548524 -0.659704 -0.366513
v -0.548524 0.659704 -0.366513
v -0.466481 -0.659704 -0.466482
v -0.466481 0.659704 -0.466482
v -0.366512 -0.659704 -0.548525
v -0.366512 0.659704 -0.548525
v -0.252457 -0.659704 -0.609488
v -0.252457 0.659704 -0.609488
v -0.128701 -0.659704 -0.647029
v -0.128701 0.659704 -0.647029
v 0.128702 -0.659704 -0.647029
v 0.059439 0.429827 -0.298818
v 0.116593 0.429827 -0.281480
v 0.252458 -0.659704 -0.609488
v 0.169267 0.429827 -0.253326
v 0.366512 -0.659704 -0.548524
v 0.215435 0.429827 -0.215436
v 0.466481 -0.659704 -0.466482
v 0.253325 0.429827 -0.169267
v 0.548524 -0.659704 -0.366512
v 0.281480 0.429827 -0.116593
v 0.609487 -0.659704 -0.252458
v 0.298818 0.429827 -0.059439
v 0.647028 -0.659704 0.128702
v 0.298818 0.429827 0.059438
v 0.281480 0.429827 0.116593
v 0.609488 -0.659704 0.252458
v 0.253325 0.429827 0.169266
v 0.548524 -0.659704 0.366512
v 0.215435 0.429827 0.215435
v 0.466481 -0.659704 0.466481
v 0.169267 0.429827 0.253325
v 0.366512 -0.659704 0.548524
v 0.116593 0.429827 0.281480
v 0.252458 -0.659704 0.609487
v 0.059438 0.429827 0.298817
v -0.128702 -0.659704 0.647028
v -0.059439 0.429827 0.298817
v -0.252458 -0.659704 0.609487
v -0.116593 0.429827 0.281480
v -0.366513 -0.659704 0.548524
v -0.169267 0.429827 0.253325
v -0.466482 -0.659704 0.466481
v -0.215436 0.429827 0.215435
v -0.548524 -0.659704 0.366512
v -0.253325 0.429827 0.169266
v -0.609488 -0.659704 0.252457
v -0.281480 0.429827 0.116592
v -0.647029 -0.659704 0.128701
v -0.647028 -0.659704 -0.128703
v -0.298818 0.429827 -0.059439
v -0.609487 -0.659704 -0.252459
v -0.281480 0.429827 -0.116593
v -0.548524 -0.659704 -0.366513
v -0.253325 0.429827 -0.169267
v -0.466481 -0.659704 -0.466482
v -0.215435 0.429827 -0.215436
v -0.366512 -0.659704 -0.548525
v -0.169266 0.429827 -0.253326
v -0.252457 -0.659704 -0.609488
v -0.116592 0.429827 -0.281480
v -0.128701 -0.659704 -0.647029
v 0.000000 -0.659704 -0.659705
v 0.000000 0.659704 0.659704
v 0.647028 -0.659704 -0.128702
v 0.128702 -0.659704 0.647028
v -0.298818 0.429827 0.059438
v -0.059438 0.429827 -0.298818
v 0.659704 -0.659704 -0.000000
v 0.000000 -0.659704 0.659704
v -0.659704 -0.659704 -0.000001
vt 0.6408 0.6967
vt 0.6124 0.6996
vt 0.6408 0.3542
vt 0.6124 0.7016
vt 0.5864 0.6983
vt 0.6124 0.3590
vt 0.5562 0.6957
vt 0.5864 0.3557
vt 0.5231 0.6941
vt 0.5562 0.3532
vt 0.4882 0.6933
vt 0.5231 0.3515
vt 0.4530 0.6935
vt 0.4882 0.3508
vt 0.4187 0.6947
vt 0.4530 0.3510
vt 0.3867 0.6967
vt 0.4187 0.3521
vt 0.3582 0.6996
vt 0.3867 0.3542
vt 0.6124 0.0000
vt 0.6384 0.0033
vt 0.6124 0.3425
vt 0.6685 0.0058
vt 0.6384 0.3458
vt 0.7017 0.0075
vt 0.6685 0.3484
vt 0.7365 0.0082
vt 0.7017 0.3500
vt 0.7718 0.0080
vt 0.7365 0.3508
vt 0.8061 0.0069
vt 0.7718 0.3506
vt 0.8380 0.0048
vt 0.8061 0.3494
vt 0.8665 0.0019
vt 0.8665 0.3445
vt 0.3582 0.0000
vt 0.3842 0.0033
vt 0.3842 0.3458
vt 0.4144 0.0058
vt 0.4144 0.3484
vt 0.4475 0.0075
vt 0.4475 0.3500
vt 0.4824 0.0082
vt 0.4824 0.3508
vt 0.5176 0.0080
vt 0.5176 0.3506
vt 0.5519 0.0069
vt 0.5519 0.3494
vt 0.5839 0.0048
vt 0.5839 0.3474
vt 0.6124 0.0019
vt 0.6124 0.3445
vt 0.8665 0.7016
vt 0.8405 0.6983
vt 0.8405 0.3557
vt 0.8104 0.6957
vt 0.8104 0.3532
vt 0.7772 0.6941
vt 0.7772 0.3515
vt 0.7424 0.6933
vt 0.7424 0.3508
vt 0.7071 0.6935
vt 0.7071 0.3510
vt 0.6728 0.6947
vt 0.6728 0.3521
vt 0.3582 0.5336
vt 0.3513 0.5669
vt 0.3582 0.4997
vt 0.8062 0.7059
vt 0.7452 1.0000
vt 0.7332 0.9989
vt 0.7801 0.7035
vt 0.7192 0.9982
vt 0.7499 0.7020
vt 0.7039 0.9980
vt 0.7167 0.7016
vt 0.6878 0.9982
vt 0.6818 0.7020
vt 0.6715 0.9989
vt 0.6466 0.7035
vt 0.6557 1.0000
vt 1.0000 0.7059
vt 0.9391 1.0000
vt 0.9270 0.9989
vt 0.9739 0.7035
vt 0.9130 0.9982
vt 0.9437 0.7020
vt 0.8977 0.9980
vt 0.9105 0.7016
vt 0.8816 0.9982
vt 0.8756 0.7020
vt 0.8653 0.9989
vt 0.8404 0.7035
vt 0.8495 1.0000
vt 0.1938 0.6932
vt 0.1329 0.9874
vt 0.1677 0.6909
vt 0.1208 0.9863
vt 0.1375 0.6894
vt 0.1069 0.9856
vt 0.1043 0.6889
vt 0.0915 0.9854
vt 0.0694 0.6894
vt 0.0754 0.9856
vt 0.0342 0.6909
vt 0.0592 0.9863
vt 0.0000 0.6932
vt 0.5520 0.7059
vt 0.4911 1.0000
vt 0.5259 0.7035
vt 0.4790 0.9989
vt 0.4957 0.7020
vt 0.4651 0.9982
vt 0.4625 0.7016
vt 0.4498 0.9980
vt 0.4277 0.7020
vt 0.4337 0.9982
vt 0.3924 0.7035
vt 0.4174 0.9989
vt 0.3582 0.7059
vt 0.3582 0.1553
vt 0.3582 0.1892
vt 0.3513 0.1220
vt 0.8802 0.3547
vt 0.8700 0.3222
vt 0.9650 0.3040
vt 0.8968 0.3846
vt 0.9697 0.3190
vt 0.8802 0.4145
vt 0.8968 0.3846
vt 0.9774 0.4363
vt 0.8700 0.4470
vt 0.9697 0.4502
vt 0.8665 0.4807
vt 0.9650 0.4651
vt 0.8700 0.5145
vt 0.9634 0.4807
vt 0.8802 0.5470
vt 0.9650 0.4963
vt 0.8968 0.5769
vt 0.9697 0.5113
vt 0.8802 0.0299
vt 0.8968 0.0000
vt 0.9697 0.0656
vt 0.8700 0.0624
vt 0.9650 0.0806
vt 0.8665 0.0961
vt 0.9634 0.0961
vt 0.8700 0.1299
vt 0.9650 0.1117
vt 0.8802 0.1624
vt 0.9697 0.1267
vt 0.8968 0.1923
vt 0.9774 0.1406
vt 0.2075 0.7188
vt 0.2241 0.6889
vt 0.2970 0.7545
vt 0.1973 0.7513
vt 0.2923 0.7695
vt 0.1938 0.7851
vt 0.2907 0.7851
vt 0.1973 0.8188
vt 0.2923 0.8007
vt 0.2075 0.8513
vt 0.2241 0.8812
vt 0.3047 0.8295
vt 0.8802 0.2222
vt 0.8968 0.1923
vt 0.9774 0.2440
vt 0.8700 0.2547
vt 0.9697 0.2579
vt 0.8665 0.2884
vt 0.9650 0.2729
vt 0.9634 0.2884
vt 0.6124 0.3571
vt 0.3582 0.3571
vt 0.8380 0.3474
vt 0.3582 0.3425
vt 0.8665 0.3590
vt 0.3378 0.5983
vt 0.3182 0.6265
vt 0.2933 0.6505
vt 0.2640 0.6693
vt 0.2314 0.6823
vt 0.1968 0.6889
vt 0.1615 0.6889
vt 0.1269 0.6823
vt 0.0943 0.6693
vt 0.0649 0.6505
vt 0.0400 0.6265
vt 0.0204 0.5983
vt 0.0069 0.5669
vt 0.0000 0.5336
vt 0.0000 0.4997
vt 0.0069 0.4664
vt 0.0204 0.4351
vt 0.0400 0.4069
vt 0.0649 0.3829
vt 0.0943 0.3641
vt 0.1269 0.3511
vt 0.1615 0.3445
vt 0.1968 0.3445
vt 0.2314 0.3511
vt 0.2640 0.3641
vt 0.2933 0.3829
vt 0.3182 0.4069
vt 0.3378 0.4351
vt 0.3513 0.4664
vt 0.6124 0.7059
vt 0.8062 0.7059
vt 0.0434 0.9874
vt 0.4016 1.0000
vt 0.3513 0.2225
vt 0.3378 0.2538
vt 0.3182 0.2820
vt 0.2933 0.3060
vt 0.2640 0.3249
vt 0.2314 0.3378
vt 0.1968 0.3445
vt 0.1615 0.3445
vt 0.1269 0.3378
vt 0.0943 0.3249
vt 0.0649 0.3060
vt 0.0400 0.2820
vt 0.0204 0.2538
vt 0.0069 0.2225
vt 0.0000 0.1892
vt 0.0000 0.1553
vt 0.0069 0.1220
vt 0.0204 0.0906
vt 0.0400 0.0624
vt 0.0649 0.0384
vt 0.0943 0.0196
vt 0.1269 0.0066
vt 0.1615 0.0000
vt 0.1968 0.0000
vt 0.2314 0.0066
vt 0.2640 0.0196
vt 0.2933 0.0384
vt 0.3182 0.0624
vt 0.3378 0.0906
vt 0.9774 0.3328
vt 0.9774 0.5251
vt 0.9774 0.0517
vt 0.3047 0.7407
vt 0.2970 0.8156
vn -0.0980 -0.0000 0.9952
vn -0.2903 -0.0000 0.9569
vn -0.4714 -0.0000 0.8819
vn -0.6344 -0.0000 0.7730
vn -0.7730 -0.0000 0.6344
vn -0.8819 0.0000 0.4714
vn -0.9569 0.0000 0.2903
vn -0.9952 -0.0000 0.0980
vn -0.9952 0.0000 -0.0980
vn -0.9569 0.0000 -0.2903
vn -0.8819 0.0000 -0.4714
vn -0.7730 0.0000 -0.6344
vn -0.6344 0.0000 -0.7730
vn -0.4714 0.0000 -0.8819
vn -0.2903 0.0000 -0.9569
vn -0.0980 0.0000 -0.9952
vn 0.0980 0.0000 -0.9952
vn 0.2903 0.0000 -0.9569
vn 0.4714 0.0000 -0.8819
vn 0.6344 0.0000 -0.7730
vn 0.7730 0.0000 -0.6344
vn 0.8819 0.0000 -0.4714
vn 0.9569 0.0000 -0.2903
vn 0.9952 0.0000 -0.0980
vn 0.9952 -0.0000 0.0980
vn 0.9569 -0.0000 0.2903
vn 0.8819 -0.0000 0.4714
vn 0.7730 -0.0000 0.6344
vn 0.6344 -0.0000 0.7730
vn 0.4714 -0.0000 0.8819
vn 0.0980 -0.0000 0.9952
vn 0.2903 -0.0000 0.9569
vn 0.0000 1.0000 0.0000
vn 0.2761 0.3085 -0.9103
vn 0.4484 0.3085 -0.8389
vn 0.6035 0.3085 -0.7353
vn 0.7353 0.3085 -0.6035
vn 0.8389 0.3085 -0.4484
vn 0.9103 0.3085 -0.2761
vn 0.9103 0.3085 0.2761
vn 0.8389 0.3085 0.4484
vn 0.7353 0.3085 0.6035
vn 0.6035 0.3085 0.7353
vn 0.4484 0.3085 0.8389
vn 0.2761 0.3085 0.9103
vn -0.2761 0.3085 0.9103
vn -0.4484 0.3085 0.8389
vn -0.6035 0.3085 0.7353
vn -0.7353 0.3085 0.6035
vn -0.7353 0.3085 0.6034
vn -0.8389 0.3085 0.4484
vn -0.9103 0.3085 0.2761
vn -0.9103 0.3085 -0.2761
vn -0.8389 0.3085 -0.4484
vn -0.7353 0.3085 -0.6035
vn -0.6035 0.3085 -0.7353
vn -0.4484 0.3085 -0.8389
vn -0.2761 0.3085 -0.9103
vn 0.0000 -1.0000 -0.0000
vn 0.4810 -0.8382 0.2571
vn 0.5219 -0.8382 0.1583
vn 0.5219 -0.8382 -0.1583
vn 0.4810 -0.8382 -0.2571
vn 0.4216 -0.8382 -0.3460
vn 0.3460 -0.8382 -0.4216
vn 0.2571 -0.8382 -0.4810
vn 0.1583 -0.8382 -0.5219
vn -0.1583 -0.8382 -0.5219
vn -0.2571 -0.8382 -0.4810
vn -0.3460 -0.8382 -0.4216
vn -0.4216 -0.8382 -0.3460
vn -0.4810 -0.8382 -0.2571
vn -0.5219 -0.8382 -0.1583
vn -0.5219 -0.8382 0.1583
vn -0.4810 -0.8382 0.2571
vn -0.4216 -0.8382 0.3460
vn -0.3460 -0.8382 0.4216
vn -0.2571 -0.8382 0.4810
vn -0.1583 -0.8382 0.5219
vn 0.1583 -0.8382 0.5219
vn 0.2571 -0.8382 0.4810
vn 0.3460 -0.8382 0.4216
vn 0.4216 -0.8382 0.3460
usemtl None
s 1
f 1/1/1 2/2/1 3/3/1
f 2/4/2 4/5/2 5/6/2
f 4/5/3 6/7/3 7/8/3
f 6/7/4 8/9/4 9/10/4
f 8/9/5 10/11/5 11/12/5
f 10/11/6 12/13/6 13/14/6
f 12/13/7 14/15/7 15/16/7
f 14/15/8 16/17/8 17/18/8
f 16/17/9 18/19/9 19/20/9
f 18/21/10 20/22/10 21/23/10
f 20/22/11 22/24/11 23/25/11
f 22/24/12 24/26/12 25/27/12
f 24/26/13 26/28/13 27/29/13
f 26/28/14 28/30/14 29/31/14
f 28/30/15 30/32/15 31/33/15
f 30/32/16 32/34/16 33/35/16
f 32/34/17 34/36/17 35/37/17
f 34/38/18 36/39/18 37/40/18
f 36/39/19 38/41/19 39/42/19
f 38/41/20 40/43/20 41/44/20
f 40/43/21 42/45/21 43/46/21
f 42/45/22 44/47/22 45/48/22
f 44/47/23 46/49/23 47/50/23
f 46/49/24 48/51/24 49/52/24
f 48/51/25 50/53/25 51/54/25
f 50/55/26 52/56/26 53/57/26
f 52/56/27 54/58/27 55/59/27
f 54/58/28 56/60/28 57/61/28
f 56/60/29 58/62/29 59/63/29
f 58/62/30 60/64/30 61/65/30
f 62/66/31 1/1/31 3/3/31
f 60/64/32 62/66/32 63/67/32
f 1/68/33 62/69/33 2/70/33
f 64/71/34 65/72/34 66/73/34
f 67/74/35 66/73/35 68/75/35
f 69/76/36 68/75/36 70/77/36
f 71/78/37 70/77/37 72/79/37
f 73/80/38 72/79/38 74/81/38
f 75/82/39 74/81/39 76/83/39
f 77/84/40 78/85/40 79/86/40
f 80/87/41 79/86/41 81/88/41
f 82/89/42 81/88/42 83/90/42
f 84/91/43 83/90/43 85/92/43
f 86/93/44 85/92/44 87/94/44
f 88/95/45 87/94/45 89/96/45
f 90/97/46 91/98/46 92/99/46
f 92/99/47 93/100/47 94/101/47
f 94/101/48 95/102/48 96/103/48
f 96/103/49 97/104/50 98/105/49
f 98/105/51 99/106/51 100/107/51
f 100/107/52 101/108/52 102/109/52
f 103/110/53 104/111/53 105/112/53
f 105/112/54 106/113/54 107/114/54
f 107/114/55 108/115/55 109/116/55
f 109/116/56 110/117/56 111/118/56
f 111/118/57 112/119/57 113/120/57
f 113/120/58 114/121/58 115/122/58
f 116/123/59 64/124/59 115/125/59
f 23/126/60 25/127/60 81/128/60
f 21/129/61 23/126/61 79/130/61
f 15/131/62 17/132/62 76/133/62
f 13/134/63 15/131/63 74/135/63
f 11/136/64 13/134/64 72/137/64
f 9/138/65 11/136/65 70/139/65
f 7/140/66 9/138/66 68/141/66
f 5/142/67 7/140/67 66/143/67
f 61/144/68 63/145/68 114/146/68
f 59/147/69 61/144/69 112/148/69
f 57/149/70 59/147/70 110/150/70
f 55/151/71 57/149/71 108/152/71
f 53/153/72 55/151/72 106/154/72
f 51/155/73 53/153/73 104/156/73
f 45/157/74 47/158/74 101/159/74
f 43/160/75 45/157/75 99/161/75
f 41/162/76 43/160/76 97/163/76
f 39/164/77 41/162/77 95/165/77
f 37/166/78 39/164/78 95/165/78
f 35/167/79 37/166/79 91/168/79
f 31/169/80 33/170/80 89/171/80
f 29/172/81 31/169/81 87/173/81
f 27/174/82 29/172/82 85/175/82
f 25/127/83 27/174/83 83/176/83
f 2/2/1 5/177/1 3/3/1
f 4/5/2 7/8/2 5/6/2
f 6/7/3 9/10/3 7/8/3
f 8/9/4 11/12/4 9/10/4
f 10/11/5 13/14/5 11/12/5
f 12/13/6 15/16/6 13/14/6
f 14/15/7 17/18/7 15/16/7
f 16/17/8 19/20/8 17/18/8
f 18/19/9 21/178/9 19/20/9
f 20/22/10 23/25/10 21/23/10
f 22/24/11 25/27/11 23/25/11
f 24/26/12 27/29/12 25/27/12
f 26/28/13 29/31/13 27/29/13
f 28/30/14 31/33/14 29/31/14
f 30/32/15 33/35/15 31/33/15
f 32/34/16 117/179/16 33/35/16
f 117/179/17 32/34/17 35/37/17
f 35/180/18 34/38/18 37/40/18
f 37/40/19 36/39/19 39/42/19
f 39/42/20 38/41/20 41/44/20
f 41/44/21 40/43/21 43/46/21
f 43/46/22 42/45/22 45/48/22
f 45/48/23 44/47/23 47/50/23
f 47/50/24 46/49/24 49/52/24
f 49/52/25 48/51/25 51/54/25
f 51/181/26 50/55/26 53/57/26
f 53/57/27 52/56/27 55/59/27
f 55/59/28 54/58/28 57/61/28
f 57/61/29 56/60/29 59/63/29
f 59/63/30 58/62/30 61/65/30
f 63/67/31 62/66/31 3/3/31
f 61/65/32 60/64/32 63/67/32
f 62/69/33 60/182/33 2/70/33
f 60/182/33 58/183/33 2/70/33
f 58/183/33 56/184/33 2/70/33
f 56/184/33 54/185/33 2/70/33
f 54/185/33 52/186/33 2/70/33
f 52/186/33 50/187/33 2/70/33
f 50/187/33 48/188/33 2/70/33
f 48/188/33 46/189/33 2/70/33
f 46/189/33 44/190/33 2/70/33
f 44/190/33 42/191/33 2/70/33
f 42/191/33 40/192/33 2/70/33
f 40/192/33 38/193/33 2/70/33
f 38/193/33 36/194/33 2/70/33
f 36/194/33 34/195/33 2/70/33
f 34/195/33 32/196/33 2/70/33
f 32/196/33 30/197/33 2/70/33
f 30/197/33 28/198/33 2/70/33
f 28/198/33 26/199/33 2/70/33
f 26/199/33 24/200/33 2/70/33
f 24/200/33 22/201/33 2/70/33
f 22/201/33 20/202/33 2/70/33
f 20/202/33 18/203/33 2/70/33
f 18/203/33 16/204/33 2/70/33
f 16/204/33 14/205/33 2/70/33
f 14/205/33 12/206/33 2/70/33
f 12/206/33 10/207/33 2/70/33
f 10/207/33 8/208/33 2/70/33
f 8/208/33 6/209/33 2/70/33
f 6/209/33 4/210/33 2/70/33
f 67/74/34 64/71/34 66/73/34
f 69/76/35 67/74/35 68/75/35
f 71/78/36 69/76/36 70/77/36
f 73/80/37 71/78/37 72/79/37
f 75/82/38 73/80/38 74/81/38
f 118/211/39 75/82/39 76/83/39
f 80/87/40 77/84/40 79/86/40
f 82/89/41 80/87/41 81/88/41
f 84/91/42 82/89/42 83/90/42
f 86/93/43 84/91/43 85/92/43
f 88/95/44 86/93/44 87/94/44
f 119/212/45 88/95/45 89/96/45
f 91/98/46 93/100/46 92/99/46
f 93/100/47 95/102/47 94/101/47
f 95/102/48 97/104/48 96/103/48
f 97/104/50 99/106/50 98/105/49
f 99/106/51 101/108/51 100/107/51
f 101/108/52 120/213/52 102/109/52
f 104/111/53 106/113/53 105/112/53
f 106/113/54 108/115/54 107/114/54
f 108/115/55 110/117/55 109/116/55
f 110/117/56 112/119/56 111/118/56
f 112/119/57 114/121/57 113/120/57
f 114/121/58 121/214/58 115/122/58
f 64/124/59 67/215/59 115/125/59
f 67/215/59 69/216/59 115/125/59
f 69/216/59 71/217/59 115/125/59
f 71/217/59 73/218/59 115/125/59
f 73/218/59 75/219/59 115/125/59
f 75/219/59 118/220/59 115/125/59
f 118/220/59 122/221/59 115/125/59
f 122/221/59 77/222/59 115/125/59
f 77/222/59 80/223/59 115/125/59
f 80/223/59 82/224/59 115/125/59
f 82/224/59 84/225/59 115/125/59
f 84/225/59 86/226/59 115/125/59
f 86/226/59 88/227/59 115/125/59
f 88/227/59 119/228/59 115/125/59
f 119/228/59 123/229/59 115/125/59
f 123/229/59 90/230/59 115/125/59
f 90/230/59 92/231/59 115/125/59
f 92/231/59 94/232/59 115/125/59
f 94/232/59 96/233/59 115/125/59
f 96/233/59 98/234/59 115/125/59
f 98/234/59 100/235/59 115/125/59
f 100/235/59 102/236/59 115/125/59
f 102/236/59 124/237/59 115/125/59
f 124/237/59 103/238/59 115/125/59
f 103/238/59 105/239/59 115/125/59
f 105/239/59 107/240/59 115/125/59
f 107/240/59 109/241/59 115/125/59
f 109/241/59 111/242/59 113/243/59
f 115/125/59 109/241/59 113/243/59
f 79/130/60 23/126/60 81/128/60
f 78/244/61 21/129/61 79/130/61
f 74/135/62 15/131/62 76/133/62
f 72/137/63 13/134/63 74/135/63
f 70/139/64 11/136/64 72/137/64
f 68/141/65 9/138/65 70/139/65
f 66/143/66 7/140/66 68/141/66
f 65/245/67 5/142/67 66/143/67
f 63/145/68 121/246/68 114/146/68
f 61/144/69 114/146/69 112/148/69
f 59/147/70 112/148/70 110/150/70
f 57/149/71 110/150/71 108/152/71
f 55/151/72 108/152/72 106/154/72
f 53/153/73 106/154/73 104/156/73
f 47/158/74 120/247/74 101/159/74
f 45/157/75 101/159/75 99/161/75
f 43/160/76 99/161/76 97/163/76
f 41/162/77 97/163/77 95/165/77
f 93/248/78 37/166/78 95/165/78
f 37/166/79 93/248/79 91/168/79
f 87/173/80 31/169/80 89/171/80
f 85/175/81 29/172/81 87/173/81
f 83/176/82 27/174/82 85/175/82
f 81/128/83 25/127/83 83/176/83
