# Blender v2.77 (sub 0) OBJ File: 'wormhole.blend1'
# www.blender.org
mtllib wormhole_core.mtl
o Cylinder
v 0.000045 0.500767 -0.009204
v 0.000045 0.500767 0.005754
v 0.097590 0.491160 -0.009204
v 0.097590 0.491160 0.005754
v 0.191387 0.462707 -0.009204
v 0.191387 0.462707 0.005754
v 0.277830 0.416502 -0.009204
v 0.277830 0.416502 0.005754
v 0.353598 0.354321 -0.009204
v 0.353598 0.354321 0.005754
v 0.415780 0.278552 -0.009204
v 0.415780 0.278552 0.005754
v 0.461985 0.192109 -0.009204
v 0.461985 0.192109 0.005754
v 0.490438 0.098312 -0.009204
v 0.490438 0.098312 0.005754
v 0.500045 0.000767 -0.009204
v 0.500045 0.000767 0.005754
v 0.490438 -0.096778 -0.009204
v 0.490438 -0.096778 0.005754
v 0.461985 -0.190574 -0.009204
v 0.461985 -0.190574 0.005754
v 0.415780 -0.277018 -0.009204
v 0.415780 -0.277018 0.005754
v 0.353598 -0.352786 -0.009204
v 0.353598 -0.352786 0.005754
v 0.277830 -0.414968 -0.009204
v 0.277830 -0.414968 0.005754
v 0.191387 -0.461173 -0.009204
v 0.191387 -0.461173 0.005754
v 0.097590 -0.489626 -0.009204
v 0.097590 -0.489626 0.005754
v 0.000045 -0.499233 -0.009204
v 0.000045 -0.499233 0.005754
v -0.097500 -0.489625 -0.009204
v -0.097500 -0.489625 0.005754
v -0.191297 -0.461173 -0.009204
v -0.191297 -0.461173 0.005754
v -0.277740 -0.414967 -0.009204
v -0.277740 -0.414967 0.005754
v -0.353509 -0.352786 -0.009204
v -0.353509 -0.352786 0.005754
v -0.415690 -0.277018 -0.009204
v -0.415690 -0.277018 0.005754
v -0.461895 -0.190574 -0.009204
v -0.461895 -0.190574 0.005754
v -0.490348 -0.096778 -0.009204
v -0.490348 -0.096778 0.005754
v -0.499955 0.000768 -0.009204
v -0.499955 0.000768 0.005754
v -0.490348 0.098313 -0.009204
v -0.490348 0.098313 0.005754
v -0.461895 0.192109 -0.009204
v -0.461895 0.192109 0.005754
v -0.415689 0.278553 -0.009204
v -0.415689 0.278553 0.005754
v -0.353508 0.354321 -0.009204
v -0.353508 0.354321 0.005754
v -0.277740 0.416502 -0.009204
v -0.277740 0.416502 0.005754
v -0.191296 0.462707 -0.009204
v -0.191296 0.462707 0.005754
v -0.097499 0.491160 -0.009204
v -0.097499 0.491160 0.005754
vt 0.5001 0.9308
vt 0.5775 0.8906
vt 0.5002 0.8982
vt 0.5837 0.9227
vt 0.6518 0.8682
vt 0.6642 0.8984
vt 0.7204 0.8317
vt 0.7384 0.8590
vt 0.7806 0.7825
vt 0.8035 0.8058
vt 0.8301 0.7225
vt 0.8571 0.7408
vt 0.8669 0.6540
vt 0.8969 0.6667
vt 0.8897 0.5795
vt 0.9215 0.5862
vt 0.8975 0.5021
vt 0.9300 0.5023
vt 0.8900 0.4245
vt 0.9219 0.4185
vt 0.8675 0.3499
vt 0.8975 0.3377
vt 0.8308 0.2811
vt 0.8579 0.2633
vt 0.7814 0.2208
vt 0.8044 0.1981
vt 0.7211 0.1714
vt 0.7392 0.1445
vt 0.6524 0.1346
vt 0.6648 0.1048
vt 0.5777 0.1120
vt 0.5841 0.0803
vt 0.5002 0.1045
vt 0.5001 0.0722
vt 0.4226 0.1122
vt 0.4162 0.0805
vt 0.3481 0.1350
vt 0.2614 0.1450
vt 0.2795 0.1718
vt 0.2194 0.2213
vt 0.1431 0.2638
vt 0.1702 0.2816
vt 0.1337 0.3502
vt 0.1036 0.3381
vt 0.1113 0.4247
vt 0.0794 0.4187
vt 0.1038 0.5021
vt 0.0714 0.5023
vt 0.1116 0.5794
vt 0.0797 0.5859
vt 0.1342 0.6536
vt 0.1439 0.7403
vt 0.1709 0.7221
vt 0.2202 0.7820
vt 0.2622 0.8584
vt 0.2802 0.8313
vt 0.3362 0.8980
vt 0.3486 0.8679
vt 0.3356 0.1052
vt 0.1043 0.6663
vt 0.4229 0.8905
vt 0.4165 0.9225
vt 0.1964 0.1986
vt 0.1972 0.8052
vn 0.0980 0.9952 0.0000
vn 0.2903 0.9569 0.0000
vn 0.4714 0.8819 0.0000
vn 0.6344 0.7730 0.0000
vn 0.7730 0.6344 0.0000
vn 0.8819 0.4714 0.0000
vn 0.9569 0.2903 0.0000
vn 0.9952 0.0980 0.0000
vn 0.9952 -0.0980 0.0000
vn 0.9569 -0.2903 0.0000
vn 0.8819 -0.4714 0.0000
vn 0.7730 -0.6344 0.0000
vn 0.6344 -0.7730 0.0000
vn 0.4714 -0.8819 0.0000
vn 0.2903 -0.9569 0.0000
vn 0.0980 -0.9952 0.0000
vn -0.0980 -0.9952 0.0000
vn -0.2903 -0.9569 0.0000
vn -0.4714 -0.8819 0.0000
vn -0.6344 -0.7730 0.0000
vn -0.7730 -0.6344 0.0000
vn -0.8819 -0.4714 0.0000
vn -0.9569 -0.2903 0.0000
vn -0.9952 -0.0980 0.0000
vn -0.9952 0.0980 0.0000
vn -0.9569 0.2903 0.0000
vn -0.8819 0.4714 0.0000
vn -0.7730 0.6344 0.0000
vn -0.6344 0.7730 0.0000
vn -0.4714 0.8819 0.0000
vn 0.0000 0.0000 1.0000
vn -0.2903 0.9569 0.0000
vn -0.0980 0.9952 0.0000
vn 0.0000 -0.0000 -1.0000
usemtl None
s off
f 2/1/1 3/2/1 1/3/1
f 4/4/2 5/5/2 3/2/2
f 6/6/3 7/7/3 5/5/3
f 8/8/4 9/9/4 7/7/4
f 10/10/5 11/11/5 9/9/5
f 12/12/6 13/13/6 11/11/6
f 14/14/7 15/15/7 13/13/7
f 16/16/8 17/17/8 15/15/8
f 18/18/9 19/19/9 17/17/9
f 20/20/10 21/21/10 19/19/10
f 22/22/11 23/23/11 21/21/11
f 24/24/12 25/25/12 23/23/12
f 26/26/13 27/27/13 25/25/13
f 28/28/14 29/29/14 27/27/14
f 30/30/15 31/31/15 29/29/15
f 32/32/16 33/33/16 31/31/16
f 34/34/17 35/35/17 33/33/17
f 36/36/18 37/37/18 35/35/18
f 37/37/19 40/38/19 39/39/19
f 40/38/20 41/40/20 39/39/20
f 41/40/21 44/41/21 43/42/21
f 44/41/22 45/43/22 43/42/22
f 46/44/23 47/45/23 45/43/23
f 48/46/24 49/47/24 47/45/24
f 50/48/25 51/49/25 49/47/25
f 52/50/26 53/51/26 51/49/26
f 53/51/27 56/52/27 55/53/27
f 56/52/28 57/54/28 55/53/28
f 57/54/29 60/55/29 59/56/29
f 59/56/30 62/57/30 61/58/30
f 38/59/31 22/22/31 54/60/31
f 62/57/32 63/61/32 61/58/32
f 64/62/33 1/3/33 63/61/33
f 31/31/34 47/45/34 15/15/34
f 2/1/1 4/4/1 3/2/1
f 4/4/2 6/6/2 5/5/2
f 6/6/3 8/8/3 7/7/3
f 8/8/4 10/10/4 9/9/4
f 10/10/5 12/12/5 11/11/5
f 12/12/6 14/14/6 13/13/6
f 14/14/7 16/16/7 15/15/7
f 16/16/8 18/18/8 17/17/8
f 18/18/9 20/20/9 19/19/9
f 20/20/10 22/22/10 21/21/10
f 22/22/11 24/24/11 23/23/11
f 24/24/12 26/26/12 25/25/12
f 26/26/13 28/28/13 27/27/13
f 28/28/14 30/30/14 29/29/14
f 30/30/15 32/32/15 31/31/15
f 32/32/16 34/34/16 33/33/16
f 34/34/17 36/36/17 35/35/17
f 36/36/18 38/59/18 37/37/18
f 37/37/19 38/59/19 40/38/19
f 40/38/20 42/63/20 41/40/20
f 41/40/21 42/63/21 44/41/21
f 44/41/22 46/44/22 45/43/22
f 46/44/23 48/46/23 47/45/23
f 48/46/24 50/48/24 49/47/24
f 50/48/25 52/50/25 51/49/25
f 52/50/26 54/60/26 53/51/26
f 53/51/27 54/60/27 56/52/27
f 56/52/28 58/64/28 57/54/28
f 57/54/29 58/64/29 60/55/29
f 59/56/30 60/55/30 62/57/30
f 6/6/31 4/4/31 2/1/31
f 2/1/31 64/62/31 6/6/31
f 62/57/31 60/55/31 58/64/31
f 58/64/31 56/52/31 54/60/31
f 54/60/31 52/50/31 50/48/31
f 50/48/31 48/46/31 54/60/31
f 46/44/31 44/41/31 42/63/31
f 42/63/31 40/38/31 38/59/31
f 38/59/31 36/36/31 34/34/31
f 34/34/31 32/32/31 30/30/31
f 30/30/31 28/28/31 22/22/31
f 26/26/31 24/24/31 22/22/31
f 22/22/31 20/20/31 18/18/31
f 18/18/31 16/16/31 14/14/31
f 14/14/31 12/12/31 10/10/31
f 10/10/31 8/8/31 6/6/31
f 6/6/31 64/62/31 62/57/31
f 62/57/31 58/64/31 6/6/31
f 54/60/31 48/46/31 46/44/31
f 46/44/31 42/63/31 54/60/31
f 38/59/31 34/34/31 22/22/31
f 28/28/31 26/26/31 22/22/31
f 22/22/31 18/18/31 14/14/31
f 14/14/31 10/10/31 22/22/31
f 6/6/31 58/64/31 54/60/31
f 54/60/31 42/63/31 38/59/31
f 34/34/31 30/30/31 22/22/31
f 22/22/31 10/10/31 6/6/31
f 6/6/31 54/60/31 22/22/31
f 62/57/32 64/62/32 63/61/32
f 64/62/33 2/1/33 1/3/33
f 63/61/34 1/3/34 3/2/34
f 3/2/34 5/5/34 7/7/34
f 7/7/34 9/9/34 15/15/34
f 11/11/34 13/13/34 15/15/34
f 15/15/34 17/17/34 23/23/34
f 19/19/34 21/21/34 23/23/34
f 23/23/34 25/25/34 27/27/34
f 27/27/34 29/29/34 31/31/34
f 31/31/34 33/33/34 39/39/34
f 35/35/34 37/37/34 39/39/34
f 39/39/34 41/40/34 43/42/34
f 43/42/34 45/43/34 47/45/34
f 47/45/34 49/47/34 51/49/34
f 51/49/34 53/51/34 55/53/34
f 55/53/34 57/54/34 63/61/34
f 59/56/34 61/58/34 63/61/34
f 63/61/34 3/2/34 7/7/34
f 9/9/34 11/11/34 15/15/34
f 17/17/34 19/19/34 23/23/34
f 23/23/34 27/27/34 31/31/34
f 33/33/34 35/35/34 39/39/34
f 39/39/34 43/42/34 47/45/34
f 47/45/34 51/49/34 63/61/34
f 57/54/34 59/56/34 63/61/34
f 63/61/34 7/7/34 15/15/34
f 15/15/34 23/23/34 31/31/34
f 31/31/34 39/39/34 47/45/34
f 51/49/34 55/53/34 63/61/34
f 63/61/34 15/15/34 47/45/34
